<svg width="30" height="30" viewBox="0 0 30 30" fill="none" xmlns="http://www.w3.org/2000/svg">
<path fill-rule="evenodd" clip-rule="evenodd" d="M15 28C18.4478 28 21.7544 26.6304 24.1924 24.1924C26.6304 21.7544 28 18.4478 28 15C28 11.5522 26.6304 8.24558 24.1924 5.80761C21.7544 3.36964 18.4478 2 15 2C11.5522 2 8.24558 3.36964 5.80761 5.80761C3.36964 8.24558 2 11.5522 2 15C2 18.4478 3.36964 21.7544 5.80761 24.1924C8.24558 26.6304 11.5522 28 15 28ZM16.625 10.125C16.625 9.69402 16.4538 9.2807 16.149 8.97595C15.8443 8.67121 15.431 8.5 15 8.5C14.569 8.5 14.1557 8.67121 13.851 8.97595C13.5462 9.2807 13.375 9.69402 13.375 10.125V13.375H10.125C9.69402 13.375 9.2807 13.5462 8.97595 13.851C8.67121 14.1557 8.5 14.569 8.5 15C8.5 15.431 8.67121 15.8443 8.97595 16.149C9.2807 16.4538 9.69402 16.625 10.125 16.625H13.375V19.875C13.375 20.306 13.5462 20.7193 13.851 21.024C14.1557 21.3288 14.569 21.5 15 21.5C15.431 21.5 15.8443 21.3288 16.149 21.024C16.4538 20.7193 16.625 20.306 16.625 19.875V16.625H19.875C20.306 16.625 20.7193 16.4538 21.024 16.149C21.3288 15.8443 21.5 15.431 21.5 15C21.5 14.569 21.3288 14.1557 21.024 13.851C20.7193 13.5462 20.306 13.375 19.875 13.375H16.625V10.125Z" fill="#1C60DE"/>
</svg>
