<svg width="30" height="30" viewBox="0 0 30 30" fill="none" xmlns="http://www.w3.org/2000/svg">
<path d="M15 1C7.26635 1 1 7.26635 1 15C1 22.7337 7.26635 29 15 29C22.7337 29 29 22.7337 29 15C29 7.26635 22.7337 1 15 1ZM17.9212 20.4587C18.426 20.9635 18.426 21.7913 17.9212 22.2962C17.6654 22.5519 17.3356 22.6731 17.0058 22.6731C16.676 22.6731 16.3394 22.5452 16.0837 22.2894L9.75673 15.9423C9.29231 15.4308 9.30577 14.6433 9.79712 14.1519L16.2183 7.71058C16.7231 7.20577 17.5442 7.19904 18.0558 7.71058C18.5606 8.21538 18.5673 9.03654 18.0558 9.54808L12.5433 15L17.9212 20.4587Z" fill="#1C60DE"/>
</svg>
