<svg width="30" height="30" viewBox="0 0 30 30" fill="none" xmlns="http://www.w3.org/2000/svg">
<path d="M15 1C12.272 1 9.65569 2.10625 7.72668 4.07538C5.79768 6.04451 4.71397 8.71523 4.71397 11.5V17.7755L3.50194 19.0128C3.26226 19.2575 3.09904 19.5693 3.03292 19.9087C2.9668 20.2481 3.00075 20.5999 3.13048 20.9196C3.2602 21.2394 3.47987 21.5127 3.76173 21.705C4.04358 21.8973 4.37496 21.9999 4.71397 22H25.286C25.625 21.9999 25.9564 21.8973 26.2383 21.705C26.5201 21.5127 26.7398 21.2394 26.8695 20.9196C26.9992 20.5999 27.0332 20.2481 26.9671 19.9087C26.901 19.5693 26.7377 19.2575 26.4981 19.0128L25.286 17.7755V11.5C25.286 8.71523 24.2023 6.04451 22.2733 4.07538C20.3443 2.10625 17.728 1 15 1ZM15 29C13.636 29 12.3278 28.4469 11.3633 27.4623C10.3988 26.4777 9.85699 25.1424 9.85699 23.75H20.143C20.143 25.1424 19.6012 26.4777 18.6367 27.4623C17.6722 28.4469 16.364 29 15 29Z" fill="currentColor"/>
</svg>
