<svg width="30" height="30" viewBox="0 0 30 30" fill="none" xmlns="http://www.w3.org/2000/svg">
<path d="M28.125 7.49998C28.125 6.50541 27.7299 5.55159 27.0266 4.84832C26.3234 4.14506 25.3696 3.74998 24.375 3.74998H23.4375V2.83884C23.4375 2.33435 23.0496 1.90134 22.5451 1.87615C22.4184 1.87004 22.2917 1.88973 22.1728 1.93403C22.0538 1.97833 21.9451 2.04631 21.8533 2.13386C21.7614 2.2214 21.6882 2.32669 21.6383 2.44334C21.5883 2.55999 21.5625 2.68557 21.5625 2.81248V3.74998H8.4375V2.83884C8.4375 2.33435 8.04961 1.90134 7.54512 1.87615C7.41836 1.87004 7.29168 1.88973 7.17276 1.93403C7.05383 1.97833 6.94514 2.04631 6.85327 2.13386C6.76139 2.2214 6.68825 2.32669 6.63827 2.44334C6.58829 2.55999 6.56251 2.68557 6.5625 2.81248V3.74998H5.625C4.63044 3.74998 3.67661 4.14506 2.97335 4.84832C2.27009 5.55159 1.875 6.50541 1.875 7.49998V8.2031C1.875 8.26526 1.89969 8.32488 1.94365 8.36883C1.9876 8.41278 2.04721 8.43748 2.10938 8.43748H27.8906C27.9528 8.43748 28.0124 8.41278 28.0564 8.36883C28.1003 8.32488 28.125 8.26526 28.125 8.2031V7.49998ZM1.875 24.375C1.875 25.3695 2.27009 26.3234 2.97335 27.0266C3.67661 27.7299 4.63044 28.125 5.625 28.125H24.375C25.3696 28.125 26.3234 27.7299 27.0266 27.0266C27.7299 26.3234 28.125 25.3695 28.125 24.375V10.4883C28.125 10.4416 28.1065 10.3969 28.0735 10.364C28.0405 10.331 27.9958 10.3125 27.9492 10.3125H2.05078C2.00416 10.3125 1.95945 10.331 1.92649 10.364C1.89352 10.3969 1.875 10.4416 1.875 10.4883V24.375ZM22.0312 12.1875C22.3094 12.1875 22.5813 12.2699 22.8125 12.4245C23.0438 12.579 23.224 12.7986 23.3305 13.0556C23.4369 13.3125 23.4647 13.5953 23.4105 13.8681C23.3562 14.1409 23.2223 14.3914 23.0256 14.5881C22.829 14.7848 22.5784 14.9187 22.3056 14.973C22.0328 15.0272 21.7501 14.9994 21.4931 14.8929C21.2361 14.7865 21.0165 14.6063 20.862 14.375C20.7075 14.1437 20.625 13.8719 20.625 13.5937C20.625 13.2208 20.7732 12.8631 21.0369 12.5994C21.3006 12.3356 21.6583 12.1875 22.0312 12.1875ZM22.0312 16.875C22.3094 16.875 22.5813 16.9575 22.8125 17.112C23.0438 17.2665 23.224 17.4861 23.3305 17.7431C23.4369 18 23.4647 18.2828 23.4105 18.5556C23.3562 18.8284 23.2223 19.0789 23.0256 19.2756C22.829 19.4723 22.5784 19.6062 22.3056 19.6605C22.0328 19.7147 21.7501 19.6869 21.4931 19.5804C21.2361 19.474 21.0165 19.2938 20.862 19.0625C20.7075 18.8312 20.625 18.5594 20.625 18.2812C20.625 17.9083 20.7732 17.5506 21.0369 17.2869C21.3006 17.0231 21.6583 16.875 22.0312 16.875ZM17.3438 12.1875C17.6219 12.1875 17.8938 12.2699 18.125 12.4245C18.3563 12.579 18.5365 12.7986 18.643 13.0556C18.7494 13.3125 18.7772 13.5953 18.723 13.8681C18.6687 14.1409 18.5348 14.3914 18.3381 14.5881C18.1415 14.7848 17.8909 14.9187 17.6181 14.973C17.3453 15.0272 17.0626 14.9994 16.8056 14.8929C16.5486 14.7865 16.329 14.6063 16.1745 14.375C16.02 14.1437 15.9375 13.8719 15.9375 13.5937C15.9375 13.2208 16.0857 12.8631 16.3494 12.5994C16.6131 12.3356 16.9708 12.1875 17.3438 12.1875ZM17.3438 16.875C17.6219 16.875 17.8938 16.9575 18.125 17.112C18.3563 17.2665 18.5365 17.4861 18.643 17.7431C18.7494 18 18.7772 18.2828 18.723 18.5556C18.6687 18.8284 18.5348 19.0789 18.3381 19.2756C18.1415 19.4723 17.8909 19.6062 17.6181 19.6605C17.3453 19.7147 17.0626 19.6869 16.8056 19.5804C16.5486 19.474 16.329 19.2938 16.1745 19.0625C16.02 18.8312 15.9375 18.5594 15.9375 18.2812C15.9375 17.9083 16.0857 17.5506 16.3494 17.2869C16.6131 17.0231 16.9708 16.875 17.3438 16.875ZM17.3438 21.5625C17.6219 21.5625 17.8938 21.645 18.125 21.7995C18.3563 21.954 18.5365 22.1736 18.643 22.4306C18.7494 22.6875 18.7772 22.9703 18.723 23.2431C18.6687 23.5159 18.5348 23.7664 18.3381 23.9631C18.1415 24.1598 17.8909 24.2937 17.6181 24.348C17.3453 24.4022 17.0626 24.3744 16.8056 24.2679C16.5486 24.1615 16.329 23.9813 16.1745 23.75C16.02 23.5187 15.9375 23.2469 15.9375 22.9687C15.9375 22.5958 16.0857 22.2381 16.3494 21.9744C16.6131 21.7106 16.9708 21.5625 17.3438 21.5625ZM12.6562 16.875C12.9344 16.875 13.2063 16.9575 13.4375 17.112C13.6688 17.2665 13.849 17.4861 13.9555 17.7431C14.0619 18 14.0897 18.2828 14.0355 18.5556C13.9812 18.8284 13.8473 19.0789 13.6506 19.2756C13.454 19.4723 13.2034 19.6062 12.9306 19.6605C12.6578 19.7147 12.3751 19.6869 12.1181 19.5804C11.8611 19.474 11.6415 19.2938 11.487 19.0625C11.3325 18.8312 11.25 18.5594 11.25 18.2812C11.25 17.9083 11.3982 17.5506 11.6619 17.2869C11.9256 17.0231 12.2833 16.875 12.6562 16.875ZM12.6562 21.5625C12.9344 21.5625 13.2063 21.645 13.4375 21.7995C13.6688 21.954 13.849 22.1736 13.9555 22.4306C14.0619 22.6875 14.0897 22.9703 14.0355 23.2431C13.9812 23.5159 13.8473 23.7664 13.6506 23.9631C13.454 24.1598 13.2034 24.2937 12.9306 24.348C12.6578 24.4022 12.3751 24.3744 12.1181 24.2679C11.8611 24.1615 11.6415 23.9813 11.487 23.75C11.3325 23.5187 11.25 23.2469 11.25 22.9687C11.25 22.5958 11.3982 22.2381 11.6619 21.9744C11.9256 21.7106 12.2833 21.5625 12.6562 21.5625ZM7.96875 16.875C8.24688 16.875 8.51876 16.9575 8.75002 17.112C8.98128 17.2665 9.16152 17.4861 9.26796 17.7431C9.37439 18 9.40224 18.2828 9.34798 18.5556C9.29372 18.8284 9.15979 19.0789 8.96312 19.2756C8.76645 19.4723 8.51588 19.6062 8.2431 19.6605C7.97031 19.7147 7.68756 19.6869 7.4306 19.5804C7.17364 19.474 6.95402 19.2938 6.7995 19.0625C6.64498 18.8312 6.5625 18.5594 6.5625 18.2812C6.5625 17.9083 6.71066 17.5506 6.97438 17.2869C7.2381 17.0231 7.59579 16.875 7.96875 16.875ZM7.96875 21.5625C8.24688 21.5625 8.51876 21.645 8.75002 21.7995C8.98128 21.954 9.16152 22.1736 9.26796 22.4306C9.37439 22.6875 9.40224 22.9703 9.34798 23.2431C9.29372 23.5159 9.15979 23.7664 8.96312 23.9631C8.76645 24.1598 8.51588 24.2937 8.2431 24.348C7.97031 24.4022 7.68756 24.3744 7.4306 24.2679C7.17364 24.1615 6.95402 23.9813 6.7995 23.75C6.64498 23.5187 6.5625 23.2469 6.5625 22.9687C6.5625 22.5958 6.71066 22.2381 6.97438 21.9744C7.2381 21.7106 7.59579 21.5625 7.96875 21.5625Z" fill="currentColor"/>
</svg>
