<svg width="30" height="30" viewBox="0 0 30 30" fill="none" xmlns="http://www.w3.org/2000/svg">
<path d="M23.75 7.5H21.7675L20.5175 6.25C19.7937 5.52625 18.5238 5 17.5 5H12.5C11.4762 5 10.2063 5.52625 9.4825 6.25L8.2325 7.5H6.25C4.1825 7.5 2.5 9.1825 2.5 11.25V21.25C2.5 23.3175 4.1825 25 6.25 25H23.75C25.8175 25 27.5 23.3175 27.5 21.25V11.25C27.5 9.1825 25.8175 7.5 23.75 7.5ZM15 20C12.5837 20 10.625 18.04 10.625 15.625C10.625 13.2075 12.5837 11.25 15 11.25C17.4163 11.25 19.375 13.2075 19.375 15.625C19.375 18.04 17.4163 20 15 20ZM22.5 14.1237C21.6012 14.1237 20.875 13.3988 20.875 12.5C20.875 11.6013 21.6012 10.8738 22.5 10.8738C23.3988 10.8738 24.125 11.6013 24.125 12.5C24.125 13.3988 23.3988 14.1237 22.5 14.1237Z" fill="currentColor"/>
</svg>
