<svg width="30" height="30" viewBox="0 0 30 30" fill="none" xmlns="http://www.w3.org/2000/svg">
<path d="M25.2844 2.68312C25.7981 2.16461 26.4962 1.87053 27.226 1.86516C27.9559 1.85978 28.6582 2.14354 29.1795 2.65443C29.7008 3.16531 29.9987 3.86178 30.008 4.59161C30.0174 5.32145 29.7374 6.02531 29.2294 6.54937L14.5294 24.9262C14.2768 25.1981 13.9721 25.4164 13.6334 25.5679C13.2946 25.7194 12.9288 25.8011 12.5578 25.8081C12.1868 25.8151 11.8182 25.7472 11.4739 25.6086C11.1297 25.47 10.817 25.2634 10.5544 25.0012L0.808119 15.2587C0.290201 14.7406 -0.000664017 14.0379 -0.000488202 13.3053C-0.000312386 12.5726 0.290889 11.8701 0.809056 11.3522C1.32722 10.8343 2.02991 10.5434 2.76253 10.5436C3.49515 10.5437 4.1977 10.835 4.71562 11.3531L12.4237 19.0631L25.2112 2.76937C25.2345 2.73972 25.2595 2.71154 25.2862 2.68499L25.2844 2.68312Z" fill="currentColor"/>
</svg>
