<svg width="30" height="30" viewBox="0 0 30 30" fill="none" xmlns="http://www.w3.org/2000/svg">
<path d="M15 1C7.28048 1 1 7.28048 1 15C1 22.7195 7.28048 29 15 29C22.7195 29 29 22.7195 29 15C29 7.28048 22.7195 1 15 1ZM20.0689 18.5464C20.1732 18.6455 20.2565 18.7643 20.314 18.896C20.3716 19.0278 20.4022 19.1697 20.404 19.3134C20.4059 19.4571 20.3789 19.5998 20.3248 19.7329C20.2706 19.8661 20.1903 19.987 20.0887 20.0887C19.987 20.1903 19.8661 20.2706 19.7329 20.3248C19.5998 20.3789 19.4571 20.4059 19.3134 20.404C19.1697 20.4022 19.0278 20.3716 18.896 20.314C18.7643 20.2565 18.6455 20.1732 18.5464 20.0689L15 16.5232L11.4536 20.0689C11.25 20.2624 10.9788 20.3686 10.698 20.365C10.4172 20.3614 10.1489 20.2483 9.9503 20.0497C9.75172 19.8511 9.63857 19.5828 9.63497 19.302C9.63137 19.0212 9.73762 18.75 9.93106 18.5464L13.4768 15L9.93106 11.4536C9.73762 11.25 9.63137 10.9788 9.63497 10.698C9.63857 10.4172 9.75172 10.1489 9.9503 9.9503C10.1489 9.75172 10.4172 9.63857 10.698 9.63497C10.9788 9.63137 11.25 9.73762 11.4536 9.93106L15 13.4768L18.5464 9.93106C18.75 9.73762 19.0212 9.63137 19.302 9.63497C19.5828 9.63857 19.8511 9.75172 20.0497 9.9503C20.2483 10.1489 20.3614 10.4172 20.365 10.698C20.3686 10.9788 20.2624 11.25 20.0689 11.4536L16.5232 15L20.0689 18.5464Z" fill="currentColor"/>
</svg>
