<svg width="30" height="30" viewBox="0 0 30 30" fill="none" xmlns="http://www.w3.org/2000/svg">
<path d="M4.5 13.5C6.15469 13.5 7.5 12.1547 7.5 10.5C7.5 8.84531 6.15469 7.5 4.5 7.5C2.84531 7.5 1.5 8.84531 1.5 10.5C1.5 12.1547 2.84531 13.5 4.5 13.5ZM25.5 13.5C27.1547 13.5 28.5 12.1547 28.5 10.5C28.5 8.84531 27.1547 7.5 25.5 7.5C23.8453 7.5 22.5 8.84531 22.5 10.5C22.5 12.1547 23.8453 13.5 25.5 13.5ZM27 15H24C23.175 15 22.4297 15.3328 21.8859 15.8719C23.775 16.9078 25.1156 18.7781 25.4062 21H28.5C29.3297 21 30 20.3297 30 19.5V18C30 16.3453 28.6547 15 27 15ZM15 15C17.9016 15 20.25 12.6516 20.25 9.75C20.25 6.84844 17.9016 4.5 15 4.5C12.0984 4.5 9.75 6.84844 9.75 9.75C9.75 12.6516 12.0984 15 15 15ZM18.6 16.5H18.2109C17.2359 16.9688 16.1531 17.25 15 17.25C13.8469 17.25 12.7688 16.9688 11.7891 16.5H11.4C8.41875 16.5 6 18.9188 6 21.9V23.25C6 24.4922 7.00781 25.5 8.25 25.5H21.75C22.9922 25.5 24 24.4922 24 23.25V21.9C24 18.9188 21.5812 16.5 18.6 16.5ZM8.11406 15.8719C7.57031 15.3328 6.825 15 6 15H3C1.34531 15 0 16.3453 0 18V19.5C0 20.3297 0.670312 21 1.5 21H4.58906C4.88438 18.7781 6.225 16.9078 8.11406 15.8719Z" fill="currentColor"/>
</svg>
