<svg width="30" height="30" viewBox="0 0 30 30" fill="none" xmlns="http://www.w3.org/2000/svg">
<path d="M9.12914 16.74L13.4213 12.3758L2.77427 1.56543C1.63805 2.72406 1 4.29349 1 5.92967C1 7.56586 1.63805 9.13529 2.77427 10.2939L9.12914 16.74ZM19.4122 13.9488C21.7327 15.0437 24.9936 14.2726 27.4051 11.8206C30.3019 8.87515 30.8631 4.6497 28.6336 2.38276C26.4192 0.131249 22.2636 0.686417 19.3515 3.63189C16.94 6.08389 16.1817 9.39947 17.2585 11.7589L2.45576 26.8102L4.59428 28.9846L15.0442 18.3901L25.4789 29L27.6174 26.8256L17.1827 16.2157L19.4122 13.9488Z" fill="currentColor"/>
</svg>
