<svg width="30" height="30" viewBox="0 0 30 30" fill="none" xmlns="http://www.w3.org/2000/svg">
<path d="M1.25 15C1.25 22.5956 7.40445 28.75 15 28.75C22.5956 28.75 28.75 22.5956 28.75 15C28.75 7.40445 22.5956 1.25 15 1.25C7.40445 1.25 1.25 7.40445 1.25 15ZM17.4129 15L11.9988 9.63882C11.503 9.14303 11.503 8.32993 11.9988 7.83414C12.4946 7.33834 13.3077 7.33834 13.8035 7.83414L20.11 14.1605C20.5925 14.643 20.6058 15.4231 20.1496 15.9189L13.9357 22.1526C13.6845 22.4038 13.3606 22.5294 13.03 22.5294C12.7061 22.5294 12.3756 22.4038 12.131 22.1593C11.6352 21.6635 11.6286 20.857 12.131 20.3546L17.4129 15Z" fill="currentColor"/>
</svg>
