<svg width="30" height="30" viewBox="0 0 30 30" fill="none" xmlns="http://www.w3.org/2000/svg">
<path d="M2 5.57143C2 5.15466 2.1712 4.75496 2.47595 4.46026C2.7807 4.16556 3.19402 4 3.625 4H6.875C7.30598 4 7.7193 4.16556 8.02405 4.46026C8.32879 4.75496 8.5 5.15466 8.5 5.57143V24.4286C8.5 24.8453 8.32879 25.245 8.02405 25.5397C7.7193 25.8344 7.30598 26 6.875 26H3.625C3.19402 26 2.7807 25.8344 2.47595 25.5397C2.1712 25.245 2 24.8453 2 24.4286V5.57143ZM11.75 5.57143C11.75 5.15466 11.9212 4.75496 12.226 4.46026C12.5307 4.16556 12.944 4 13.375 4H16.625C17.056 4 17.4693 4.16556 17.774 4.46026C18.0788 4.75496 18.25 5.15466 18.25 5.57143V24.4286C18.25 24.8453 18.0788 25.245 17.774 25.5397C17.4693 25.8344 17.056 26 16.625 26H13.375C12.944 26 12.5307 25.8344 12.226 25.5397C11.9212 25.245 11.75 24.8453 11.75 24.4286V5.57143ZM23.125 4C22.694 4 22.2807 4.16556 21.976 4.46026C21.6712 4.75496 21.5 5.15466 21.5 5.57143V24.4286C21.5 24.8453 21.6712 25.245 21.976 25.5397C22.2807 25.8344 22.694 26 23.125 26H26.375C26.806 26 27.2193 25.8344 27.524 25.5397C27.8288 25.245 28 24.8453 28 24.4286V5.57143C28 5.15466 27.8288 4.75496 27.524 4.46026C27.2193 4.16556 26.806 4 26.375 4H23.125Z" fill="currentColor"/>
</svg>
