<svg width="30" height="30" viewBox="0 0 30 30" fill="none" xmlns="http://www.w3.org/2000/svg">
<path d="M16.1506 2.47578C15.8454 2.17114 15.4316 2 15 2C14.5684 2 14.1546 2.17114 13.8494 2.47578L2.45686 13.8509C2.1604 14.1574 1.99635 14.5679 2.00006 14.994C2.00377 15.4201 2.17493 15.8276 2.47668 16.1289C2.77844 16.4302 3.18663 16.6011 3.61336 16.6048C4.04008 16.6085 4.45119 16.4447 4.75814 16.1487L5.235 15.6726V26.375C5.235 26.806 5.40647 27.2193 5.71168 27.524C6.0169 27.8288 6.43086 28 6.8625 28H10.1175C10.5491 28 10.9631 27.8288 11.2683 27.524C11.5735 27.2193 11.745 26.806 11.745 26.375V23.1249C11.745 22.694 11.9165 22.2806 12.2217 21.9759C12.5269 21.6711 12.9409 21.4999 13.3725 21.4999H16.6275C17.0591 21.4999 17.4731 21.6711 17.7783 21.9759C18.0835 22.2806 18.255 22.694 18.255 23.1249V26.375C18.255 26.806 18.4265 27.2193 18.7317 27.524C19.0369 27.8288 19.4509 28 19.8825 28H23.1375C23.5691 28 23.9831 27.8288 24.2883 27.524C24.5935 27.2193 24.765 26.806 24.765 26.375V15.6726L25.2419 16.1487C25.5488 16.4447 25.9599 16.6085 26.3866 16.6048C26.8134 16.6011 27.2216 16.4302 27.5233 16.1289C27.8251 15.8276 27.9962 15.4201 27.9999 14.994C28.0036 14.5679 27.8396 14.1574 27.5431 13.8509L16.1506 2.47578Z" fill="currentColor"/>
</svg>
