<svg width="77" height="70" viewBox="0 0 77 70" fill="none" xmlns="http://www.w3.org/2000/svg">
<path d="M51.164 58.2281C50.9358 58.6024 50.6452 58.8887 50.3405 59.1611C49.9932 59.4717 49.6372 59.7727 49.291 60.0844C48.451 60.8408 47.6155 61.6021 46.7765 62.3595C45.4531 63.5541 44.128 64.7467 42.8044 65.941C41.9825 66.6826 41.1619 67.4257 40.3412 68.1686C39.8229 68.6378 39.3047 69.1072 38.7883 69.5785C38.6851 69.6726 38.5936 69.7794 38.4905 69.8735C38.3062 70.0419 38.1882 70.0419 38.01 69.8753C37.5845 69.4775 37.1473 69.0923 36.7151 68.7017C35.6777 67.7641 34.6403 66.8265 33.6031 65.8886C32.5832 64.9664 31.5642 64.0433 30.5438 63.1216C29.2295 61.9345 27.9135 60.7494 26.5998 59.5618C25.7267 58.7725 24.8576 57.9789 23.9843 57.19C22.9121 56.2215 21.837 55.2561 20.7637 54.2888C20.2703 53.8442 19.778 53.3983 19.2852 52.953C18.2565 52.0233 17.2279 51.0934 16.1989 50.164C14.997 49.0784 13.7926 47.9955 12.5934 46.9069C11.9981 46.3665 11.3922 45.8359 10.8256 45.2665C9.29481 43.7281 7.88128 42.0863 6.56885 40.357C5.6523 39.1494 4.78411 37.909 3.96773 36.6314C3.47032 35.8529 3.06187 35.0291 2.67322 34.1944C2.18102 33.1373 1.75563 32.0533 1.39463 30.9442C0.990387 29.7023 0.667824 28.4399 0.439705 27.1536C0.270857 26.2016 0.15097 25.2441 0.076281 24.2794C-0.0210891 23.0217 -0.0175623 21.7634 0.0436984 20.5065C0.0964023 19.4251 0.235238 18.3512 0.423567 17.2832C0.658708 15.9497 0.982622 14.6402 1.42297 13.3604C1.97529 11.7552 2.68432 10.2271 3.68002 8.84252C4.16373 8.16989 4.68126 7.52582 5.24494 6.91762C6.87793 5.15564 8.77394 3.7428 10.8943 2.62144C12.6334 1.70171 14.4647 1.02674 16.3632 0.523764C17.2204 0.296638 18.0898 0.137425 18.9713 0.0448864C19.1911 0.0218061 19.4135 0.0130819 19.6347 0.0142636C20.2873 0.0177466 20.942 -0.00114071 21.5919 0.0452525C22.5454 0.11332 23.4839 0.293343 24.4088 0.540134C26.108 0.993548 27.7071 1.68742 29.235 2.55033C31.1519 3.63286 32.9011 4.94545 34.5299 6.42278C35.7748 7.55199 36.943 8.75437 38.0102 10.0538C38.0618 10.1165 38.1191 10.1748 38.1769 10.2319C38.1917 10.2465 38.2188 10.2485 38.2569 10.2623C38.3062 10.2097 38.3635 10.1547 38.414 10.094C39.167 9.18808 39.9578 8.3165 40.7992 7.49208C42.688 5.64132 44.7343 3.99239 47.0298 2.66678C48.7646 1.6649 50.5903 0.882814 52.5455 0.421625C53.2031 0.266498 53.8679 0.155086 54.5406 0.0804835C55.4831 -0.0240395 56.4268 -0.0149684 57.3687 0.0409401C58.0771 0.0829931 58.7781 0.208004 59.4712 0.369832C61.3961 0.819222 63.2521 1.46251 65.0259 2.33675C66.8134 3.21773 68.4623 4.30858 69.9418 5.64515C71.4486 7.00634 72.7386 8.54808 73.7296 10.3274C74.2467 11.2558 74.6547 12.2346 75.0082 13.2356C75.463 14.5232 75.7986 15.8431 76.042 17.1857C76.1832 17.9648 76.2871 18.7495 76.3586 19.539C76.4302 20.3281 76.4863 21.1176 76.4865 21.9098C76.4866 22.5386 76.4987 23.1677 76.4346 23.7955C76.3921 24.2123 76.3799 24.6322 76.3396 25.0493C76.2994 25.4663 76.2509 25.883 76.1886 26.2972C76.05 27.2186 75.8687 28.1321 75.6419 29.036C75.2641 30.5415 74.7655 32.0067 74.1529 33.4329C73.831 34.1824 73.4843 34.9205 73.0988 35.6396C72.9833 35.855 72.8566 36.0648 72.7285 36.2732C71.947 37.5453 71.0986 38.7725 70.2029 39.966C69.1811 41.3275 68.1128 42.6524 66.9469 43.8945C66.3648 44.5146 65.7777 45.1311 65.1681 45.7238C64.6756 46.2026 64.1437 46.6408 63.6336 47.1019C63.0805 47.602 62.5325 48.1078 61.9821 48.6109C61.9134 48.6737 61.8461 48.7384 61.7745 48.7978C61.4694 49.0504 61.1736 49.3119 60.8953 49.5954C60.0599 50.4468 59.0225 50.8288 57.8522 50.7254C56.286 50.5871 55.137 49.7813 54.5199 48.3202C53.9671 47.0113 54.1319 45.7458 54.9107 44.5621C55.1368 44.2184 55.4296 43.9285 55.7545 43.6817C56.3685 43.2155 56.9306 42.6908 57.5077 42.1827C58.4007 41.3965 59.2472 40.5615 60.0782 39.7111C62.0807 37.6618 63.8732 35.4457 65.3714 32.9988C66.3418 31.4138 67.1584 29.7548 67.7615 27.9934C68.1285 26.9217 68.4053 25.8282 68.5588 24.7063C68.6313 24.1759 68.677 23.6409 68.6509 23.1033C68.6475 23.0334 68.645 22.9634 68.6454 22.8935C68.6508 22.0299 68.5678 21.1735 68.459 20.3176C68.325 19.2636 68.1082 18.228 67.8076 17.2105C67.3525 15.67 66.711 14.2152 65.7829 12.8952C64.474 11.0338 62.7513 9.72396 60.5949 8.98861C59.7114 8.68732 58.812 8.44807 57.889 8.30504C57.5902 8.25874 57.2879 8.23182 56.9863 8.20745C56.6849 8.18309 56.3824 8.16088 56.0802 8.15888C55.0499 8.15207 54.0357 8.27825 53.0429 8.55911C51.6552 8.95166 50.4022 9.60014 49.3023 10.5368C49.1871 10.6349 49.0791 10.7419 48.9715 10.8484C48.3419 11.4718 47.7154 12.0984 47.084 12.7199C45.7799 14.0037 44.4734 15.2851 43.1677 16.5673C41.8869 17.825 40.6062 19.0828 39.3246 20.3397C39.0418 20.617 38.756 20.8914 38.4697 21.1652C38.4116 21.2207 38.3449 21.2674 38.2677 21.3299C38.2087 21.289 38.1483 21.2576 38.101 21.2126C37.8982 21.0198 37.6987 20.8237 37.4992 20.6277C36.1273 19.2797 34.7564 17.9307 33.3839 16.5835C32.5271 15.7425 31.6671 14.905 30.8101 14.0642C29.7119 12.9867 28.6212 11.9014 27.5158 10.8313C26.8057 10.1439 25.9758 9.62445 25.0822 9.21002C24.1033 8.75601 23.0765 8.46419 22.0027 8.33859C21.0609 8.22844 20.12 8.23043 19.1786 8.33794C17.6736 8.50984 16.2308 8.91112 14.8556 9.54273C13.4765 10.1761 12.3222 11.1076 11.3556 12.2721C10.3156 13.5251 9.58512 14.95 9.05142 16.4812C8.65169 17.6279 8.37018 18.8035 8.19255 20.0048C8.09028 20.6965 8.00309 21.3891 7.98138 22.0888C7.97019 22.4494 7.95755 22.81 7.93853 23.1702C7.91258 23.6617 7.96329 24.1497 8.02846 24.6333C8.31754 26.7785 9.02141 28.7926 9.97484 30.7281C11.0257 32.8612 12.3383 34.8229 13.8227 36.6749C14.8737 37.9861 16.0056 39.224 17.1965 40.4084C18.3871 41.5926 19.635 42.7138 20.9232 43.791C21.3432 44.1423 21.7478 44.5121 22.1556 44.8778C23.4309 46.0214 24.7039 47.1675 25.9786 48.3118C27.3313 49.5261 28.6849 50.7393 30.038 51.9532C31.3824 53.1593 32.7264 54.3657 34.0708 55.5718C35.4239 56.7857 36.7771 57.9995 38.1309 59.2126C38.1907 59.2661 38.2567 59.3126 38.3283 59.3691C38.3811 59.33 38.43 59.2998 38.472 59.2619C39.2423 58.5674 40.0086 57.8685 40.7823 57.1778C41.9556 56.1301 43.1345 55.0884 44.3098 54.043C44.5622 53.8185 44.819 53.5977 45.0578 53.3593C45.8607 52.5577 46.8268 52.1855 47.9582 52.2033C49.7334 52.2312 51.3535 53.5551 51.7025 55.3891C51.8934 56.3923 51.7112 57.3342 51.164 58.2281Z" fill="#1C60DE"/>
<path d="M30.6539 46.7656C29.5132 45.5176 28.3886 44.2883 27.2634 43.0598C26.6496 42.3896 26.0338 41.7211 25.4201 41.0508C24.5469 40.097 23.675 39.142 22.8015 38.1884C22.7387 38.1198 22.6655 38.0609 22.6015 37.9934C22.5178 37.9052 22.5024 37.8091 22.5611 37.7065C22.6013 37.6362 22.6517 37.571 22.7029 37.5079C23.4506 36.586 24.3053 35.7861 25.3431 35.1953C26.1006 34.7641 26.9084 34.4857 27.7735 34.3632C28.9047 34.2029 30.0035 34.3446 31.0811 34.6912C32.3261 35.0917 33.4483 35.7224 34.4715 36.5334C34.5349 36.5837 34.5991 36.6331 34.6746 36.692C34.7497 36.6719 34.8283 36.6565 34.9029 36.6299C35.6195 36.3746 36.3561 36.1986 37.1134 36.1379C38.687 36.0119 40.1756 36.2993 41.5477 37.1074C41.5777 37.125 41.6083 37.1418 41.6396 37.1572C41.6495 37.1621 41.6624 37.1609 41.6975 37.166C41.7204 37.1284 41.7623 37.0862 41.7738 37.0368C42.0386 35.9012 42.5432 34.8665 43.1107 33.8588C43.2593 33.595 43.4164 33.3352 43.5859 33.0845C43.6955 32.9223 43.7034 32.7756 43.6343 32.5949C43.3178 31.7683 43.0166 30.9359 42.7013 30.1089C42.4649 29.4888 42.2165 28.8732 41.9709 28.2566C41.9372 28.1721 41.8889 28.0933 41.8445 28.0062C41.7865 28.0062 41.7404 28.0027 41.695 28.0067C41.3472 28.0373 40.9985 28.0604 40.6523 28.1037C40.3724 28.1387 40.0967 28.1401 39.8178 28.0998C39.5532 28.0616 39.2847 28.0491 39.0213 28.0049C38.8505 27.9763 38.6808 27.9237 38.5194 27.8595C38.1719 27.7212 38.0541 27.532 38.0645 27.1594C38.0677 27.0438 38.0817 26.9284 38.0922 26.7938C38.0242 26.7423 37.952 26.6871 37.8794 26.6325C37.6189 26.4364 37.3561 26.2433 37.0982 26.0438C36.8838 25.8779 36.7201 25.6655 36.5736 25.4396C36.266 24.9654 36.3781 24.4809 36.8358 24.1703C37.906 23.444 38.9569 22.6893 40.0149 21.945C40.11 21.8781 40.1992 21.8029 40.2922 21.7329C40.3716 21.6732 40.4561 21.6522 40.554 21.6911C40.7486 21.7684 40.9489 21.8324 41.1401 21.9172C42.3864 22.4702 43.6053 23.0804 44.8268 23.6851C44.9646 23.7533 45.04 23.8547 45.1028 23.9836C45.4495 24.6959 45.8032 25.4049 46.1465 26.1189C46.5958 27.0531 47.0414 27.9892 47.4818 28.9277C48.4815 31.0579 49.4766 33.1904 50.3634 35.371C50.5738 35.8884 50.7564 36.4174 50.9434 36.944C51.0811 37.3313 51.1259 37.7395 51.1504 38.1453C51.1925 38.8425 51.2242 39.5411 51.2318 40.2394C51.2412 41.1017 51.2249 41.9643 51.2121 42.8267C51.2087 43.0586 51.1779 43.29 51.1589 43.5309C51.0304 43.6648 50.8581 43.7399 50.6963 43.8279C49.9179 44.2509 49.122 44.6392 48.3107 44.9948C46.1404 45.9461 43.9079 46.7119 41.5999 47.257C40.5567 47.5033 39.5053 47.7053 38.4455 47.8586C37.6623 47.9719 36.8738 48.0443 36.0837 48.1038C34.989 48.1862 33.8946 48.1582 32.7998 48.1471C32.5326 48.1443 32.2661 48.1053 31.9988 48.0915C31.8663 48.0847 31.7903 48.0035 31.7108 47.9167C31.3645 47.5387 31.017 47.1619 30.6539 46.7656Z" fill="#1C60DE"/>
</svg>
