<svg width="30" height="30" viewBox="0 0 30 30" fill="none" xmlns="http://www.w3.org/2000/svg">
<path d="M9.22222 2H6.33333C5.14167 2 4.05833 2.48678 3.27256 3.27256C2.48678 4.05833 2 5.14167 2 6.33333V9.22222C2 10.4139 2.48678 11.4972 3.27256 12.283C4.05833 13.0688 5.14167 13.5556 6.33333 13.5556H9.22222C10.4139 13.5556 11.4972 13.0688 12.283 12.283C13.0688 11.4972 13.5556 10.4139 13.5556 9.22222V6.33333C13.5556 5.14167 13.0688 4.05833 12.283 3.27256C11.4972 2.48678 10.4139 2 9.22222 2ZM23.6667 2H20.7778C19.5861 2 18.5028 2.48678 17.717 3.27256C16.9312 4.05833 16.4444 5.14167 16.4444 6.33333V9.22222C16.4444 10.4139 16.9312 11.4972 17.717 12.283C18.5028 13.0688 19.5861 13.5556 20.7778 13.5556H23.6667C24.8583 13.5556 25.9417 13.0688 26.7274 12.283C27.5132 11.4972 28 10.4139 28 9.22222V6.33333C28 5.14167 27.5132 4.05833 26.7274 3.27256C25.9417 2.48678 24.8583 2 23.6667 2ZM9.22222 16.4444H6.33333C5.14167 16.4444 4.05833 16.9312 3.27256 17.717C2.48678 18.5028 2 19.5861 2 20.7778V23.6667C2 24.8583 2.48678 25.9417 3.27256 26.7274C4.05833 27.5132 5.14167 28 6.33333 28H9.22222C10.4139 28 11.4972 27.5132 12.283 26.7274C13.0688 25.9417 13.5556 24.8583 13.5556 23.6667V20.7778C13.5556 19.5861 13.0688 18.5028 12.283 17.717C11.4972 16.9312 10.4139 16.4444 9.22222 16.4444ZM23.6667 16.4444H20.7778C19.5861 16.4444 18.5028 16.9312 17.717 17.717C16.9312 18.5028 16.4444 19.5861 16.4444 20.7778V23.6667C16.4444 24.8583 16.9312 25.9417 17.717 26.7274C18.5028 27.5132 19.5861 28 20.7778 28H23.6667C24.8583 28 25.9417 27.5132 26.7274 26.7274C27.5132 25.9417 28 24.8583 28 23.6667V20.7778C28 19.5861 27.5132 18.5028 26.7274 17.717C25.9417 16.9312 24.8583 16.4444 23.6667 16.4444Z" fill="currentColor"/>
</svg>
