<svg width="30" height="30" viewBox="0 0 30 30" fill="none" xmlns="http://www.w3.org/2000/svg">
<path d="M11.25 0.52126C11.433 0.743659 11.5452 1.01583 11.5719 1.30262C11.5986 1.5894 11.5388 1.87761 11.4 2.13001C10.316 4.12028 9.74988 6.35119 9.75375 8.61751C9.75375 16.1569 15.9 22.2619 23.475 22.2619C24.4631 22.2619 25.425 22.1588 26.3494 21.9619C26.6327 21.9005 26.9279 21.924 27.198 22.0294C27.4681 22.1347 27.7012 22.3173 27.8681 22.5544C28.0444 22.8009 28.1342 23.0986 28.1237 23.4015C28.1132 23.7043 28.0029 23.9951 27.81 24.2288C26.3394 26.0352 24.4842 27.4907 22.3797 28.4891C20.2752 29.4875 17.9743 30.0037 15.645 30C7.00125 30 0 23.0363 0 14.4563C0 7.99876 3.96375 2.46001 9.6075 0.11251C9.88863 -0.0063049 10.2007 -0.0306912 10.4969 0.0430147C10.7931 0.116721 11.0573 0.284539 11.25 0.52126Z" fill="currentColor"/>
<path d="M20.2388 5.9025C20.2656 5.8213 20.3174 5.75064 20.3868 5.70056C20.4561 5.65048 20.5395 5.62352 20.625 5.62352C20.7105 5.62352 20.7939 5.65048 20.8632 5.70056C20.9326 5.75064 20.9844 5.8213 21.0113 5.9025L21.7369 8.08125C22.0613 9.0525 22.8225 9.81375 23.7938 10.1381L25.9725 10.8637C26.0537 10.8906 26.1244 10.9424 26.1744 11.0118C26.2245 11.0811 26.2515 11.1645 26.2515 11.25C26.2515 11.3355 26.2245 11.4189 26.1744 11.4882C26.1244 11.5576 26.0537 11.6094 25.9725 11.6362L23.7938 12.3619C23.3147 12.5215 22.8795 12.7904 22.5225 13.1475C22.1654 13.5045 21.8965 13.9397 21.7369 14.4187L21.0113 16.5975C20.9844 16.6787 20.9326 16.7494 20.8632 16.7994C20.7939 16.8495 20.7105 16.8765 20.625 16.8765C20.5395 16.8765 20.4561 16.8495 20.3868 16.7994C20.3174 16.7494 20.2656 16.6787 20.2388 16.5975L19.5131 14.4187C19.3535 13.9397 19.0846 13.5045 18.7276 13.1475C18.3705 12.7904 17.9353 12.5215 17.4563 12.3619L15.2775 11.6362C15.1963 11.6094 15.1257 11.5576 15.0756 11.4882C15.0255 11.4189 14.9985 11.3355 14.9985 11.25C14.9985 11.1645 15.0255 11.0811 15.0756 11.0118C15.1257 10.9424 15.1963 10.8906 15.2775 10.8637L17.4563 10.1381C17.9353 9.97853 18.3705 9.70957 18.7276 9.35255C19.0846 8.99553 19.3535 8.56027 19.5131 8.08125L20.2388 5.9025ZM25.9931 0.185625C26.0116 0.132237 26.0463 0.0859424 26.0924 0.0531781C26.1384 0.0204137 26.1935 0.00280762 26.25 0.00280762C26.3065 0.00280762 26.3616 0.0204137 26.4077 0.0531781C26.4537 0.0859424 26.4884 0.132237 26.5069 0.185625L26.9906 1.63687C27.2063 2.28562 27.7144 2.79375 28.3631 3.00937L29.8144 3.49312C29.8678 3.51163 29.9141 3.54632 29.9468 3.59236C29.9796 3.63839 29.9972 3.69349 29.9972 3.75C29.9972 3.80651 29.9796 3.86161 29.9468 3.90764C29.9141 3.95368 29.8678 3.98837 29.8144 4.00688L28.3631 4.49062C28.0434 4.59698 27.7529 4.77641 27.5147 5.01465C27.2764 5.2529 27.097 5.54342 26.9906 5.86312L26.5069 7.31437C26.4884 7.36776 26.4537 7.41406 26.4077 7.44682C26.3616 7.47959 26.3065 7.49719 26.25 7.49719C26.1935 7.49719 26.1384 7.47959 26.0924 7.44682C26.0463 7.41406 26.0116 7.36776 25.9931 7.31437L25.5094 5.86312C25.403 5.54342 25.2236 5.2529 24.9854 5.01465C24.7471 4.77641 24.4566 4.59698 24.1369 4.49062L22.6856 4.00688C22.6322 3.98837 22.586 3.95368 22.5532 3.90764C22.5204 3.86161 22.5028 3.80651 22.5028 3.75C22.5028 3.69349 22.5204 3.63839 22.5532 3.59236C22.586 3.54632 22.6322 3.51163 22.6856 3.49312L24.1369 3.00937C24.7856 2.79375 25.2938 2.28562 25.5094 1.63687L25.9931 0.1875V0.185625Z" fill="currentColor"/>
</svg>
