<svg width="30" height="30" viewBox="0 0 30 30" fill="none" xmlns="http://www.w3.org/2000/svg">
<path d="M10 15C10 16.3807 8.88071 17.5 7.5 17.5C6.11929 17.5 5 16.3807 5 15C5 13.6193 6.11929 12.5 7.5 12.5C8.88071 12.5 10 13.6193 10 15Z" fill="#1C60DE"/>
<path d="M17.5 15C17.5 16.3807 16.3807 17.5 15 17.5C13.6193 17.5 12.5 16.3807 12.5 15C12.5 13.6193 13.6193 12.5 15 12.5C16.3807 12.5 17.5 13.6193 17.5 15Z" fill="#1C60DE"/>
<path d="M22.5 17.5C23.8807 17.5 25 16.3807 25 15C25 13.6193 23.8807 12.5 22.5 12.5C21.1193 12.5 20 13.6193 20 15C20 16.3807 21.1193 17.5 22.5 17.5Z" fill="#1C60DE"/>
</svg>
