<svg width="30" height="30" viewBox="0 0 30 30" fill="none" xmlns="http://www.w3.org/2000/svg">
<path d="M21.1156 4.04487C21.4313 3.71798 21.809 3.45724 22.2266 3.27787C22.6441 3.09849 23.0933 3.00408 23.5477 3.00013C24.0021 2.99618 24.4528 3.08278 24.8734 3.25487C25.2941 3.42696 25.6762 3.68109 25.9976 4.00245C26.3189 4.3238 26.573 4.70593 26.7451 5.12656C26.9172 5.54718 27.0038 5.99786 26.9999 6.4523C26.9959 6.90675 26.9015 7.35586 26.7221 7.77342C26.5428 8.19099 26.282 8.56865 25.9551 8.88437L24.5981 10.2414L19.7586 5.40191L21.1156 4.04487ZM17.3388 7.82167L3 22.1605V27H7.8395L22.18 12.6612L17.3388 7.82167Z" fill="currentColor"/>
</svg>
