<svg width="30" height="30" viewBox="0 0 30 30" fill="none" xmlns="http://www.w3.org/2000/svg">
<path fill-rule="evenodd" clip-rule="evenodd" d="M19.8988 19.1343C22.9535 15.2112 22.6775 9.53541 19.0711 5.92893C15.1659 2.02369 8.83418 2.02369 4.92894 5.92893C1.02369 9.83418 1.02369 16.1658 4.92894 20.0711C8.53541 23.6776 14.2112 23.9534 18.1344 20.8988C18.1512 20.9179 18.1689 20.9367 18.1871 20.9549L23.4905 26.2582C23.9786 26.7464 24.7701 26.7464 25.2582 26.2582C25.7464 25.7701 25.7464 24.9787 25.2582 24.4904L19.955 19.1872C19.9366 19.1689 19.9179 19.1513 19.8988 19.1343ZM17.3032 7.6967C20.2323 10.6256 20.2323 15.3743 17.3032 18.3033C14.3744 21.2322 9.62562 21.2322 6.6967 18.3033C3.76776 15.3743 3.76776 10.6256 6.6967 7.6967C9.62562 4.76777 14.3744 4.76777 17.3032 7.6967Z" fill="currentColor"/>
</svg>
