<svg width="30" height="30" viewBox="0 0 30 30" fill="none" xmlns="http://www.w3.org/2000/svg">
<path d="M1 20.8571C1 20.554 1.12292 20.2633 1.34171 20.049C1.5605 19.8347 1.85725 19.7143 2.16667 19.7143H9.16667C9.47609 19.7143 9.77283 19.8347 9.99162 20.049C10.2104 20.2633 10.3333 20.554 10.3333 20.8571C10.3333 21.1602 10.2104 21.4509 9.99162 21.6653C9.77283 21.8796 9.47609 22 9.16667 22H2.16667C1.85725 22 1.5605 21.8796 1.34171 21.6653C1.12292 21.4509 1 21.1602 1 20.8571ZM1 14C1 13.6969 1.12292 13.4062 1.34171 13.1919C1.5605 12.9776 1.85725 12.8571 2.16667 12.8571H18.5C18.8094 12.8571 19.1062 12.9776 19.325 13.1919C19.5438 13.4062 19.6667 13.6969 19.6667 14C19.6667 14.3031 19.5438 14.5938 19.325 14.8081C19.1062 15.0224 18.8094 15.1429 18.5 15.1429H2.16667C1.85725 15.1429 1.5605 15.0224 1.34171 14.8081C1.12292 14.5938 1 14.3031 1 14ZM1 7.14286C1 6.83975 1.12292 6.54906 1.34171 6.33474C1.5605 6.12041 1.85725 6 2.16667 6H27.8333C28.1428 6 28.4395 6.12041 28.6583 6.33474C28.8771 6.54906 29 6.83975 29 7.14286C29 7.44596 28.8771 7.73665 28.6583 7.95098C28.4395 8.16531 28.1428 8.28571 27.8333 8.28571H2.16667C1.85725 8.28571 1.5605 8.16531 1.34171 7.95098C1.12292 7.73665 1 7.44596 1 7.14286Z" fill="#1C60DE"/>
</svg>
