<svg width="30" height="30" viewBox="0 0 30 30" fill="none" xmlns="http://www.w3.org/2000/svg">
<path fill-rule="evenodd" clip-rule="evenodd" d="M28 15C28 18.4478 26.6304 21.7544 24.1924 24.1924C21.7544 26.6304 18.4478 28 15 28C11.5522 28 8.24558 26.6304 5.80761 24.1924C3.36964 21.7544 2 18.4478 2 15C2 11.5522 3.36964 8.24558 5.80761 5.80761C8.24558 3.36964 11.5522 2 15 2C18.4478 2 21.7544 3.36964 24.1924 5.80761C26.6304 8.24558 28 11.5522 28 15ZM18.25 10.125C18.25 10.987 17.9076 11.8136 17.2981 12.4231C16.6886 13.0326 15.862 13.375 15 13.375C14.138 13.375 13.3114 13.0326 12.7019 12.4231C12.0924 11.8136 11.75 10.987 11.75 10.125C11.75 9.26305 12.0924 8.4364 12.7019 7.8269C13.3114 7.21741 14.138 6.875 15 6.875C15.862 6.875 16.6886 7.21741 17.2981 7.8269C17.9076 8.4364 18.25 9.26305 18.25 10.125ZM15 16.625C13.4442 16.6247 11.9211 17.071 10.6116 17.911C9.30203 18.751 8.2612 19.9493 7.61275 21.3635C8.5271 22.4272 9.66069 23.2806 10.9358 23.8652C12.2109 24.4497 13.5973 24.7515 15 24.75C16.4027 24.7515 17.7891 24.4497 19.0642 23.8652C20.3393 23.2806 21.4729 22.4272 22.3872 21.3635C21.7388 19.9493 20.698 18.751 19.3885 17.911C18.0789 17.071 16.5558 16.6247 15 16.625Z" fill="#1C60DE"/>
</svg>
